<svg width="57" height="46" viewBox="0 0 57 46" fill="none" xmlns="http://www.w3.org/2000/svg">
<path fill-rule="evenodd" clip-rule="evenodd" d="M0.332275 33.7755C0.332275 32.947 1.00385 32.2755 1.83228 32.2755H9.30594C10.1344 32.2755 10.8059 32.947 10.8059 33.7755V43.8126C10.8059 44.641 10.1344 45.3126 9.30594 45.3126H1.83228C1.00385 45.3126 0.332275 44.641 0.332275 43.8126V33.7755ZM3.33228 35.2755V42.3126H7.80594V35.2755H3.33228Z" fill="#7A7A7A"/>
<path fill-rule="evenodd" clip-rule="evenodd" d="M11.8069 25.8103C11.8069 24.9819 12.4785 24.3103 13.3069 24.3103H20.7805C21.609 24.3103 22.2805 24.9819 22.2805 25.8103V43.8283C22.2805 44.6567 21.609 45.3283 20.7805 45.3283H13.3069C12.4785 45.3283 11.8069 44.6567 11.8069 43.8283V25.8103ZM14.8069 27.3103V42.3283H19.2805V27.3103H14.8069Z" fill="#7A7A7A"/>
<path fill-rule="evenodd" clip-rule="evenodd" d="M23.2815 17.8148C23.2815 16.9863 23.9531 16.3148 24.7815 16.3148H32.2552C33.0836 16.3148 33.7552 16.9863 33.7552 17.8148V43.8136C33.7552 44.642 33.0836 45.3136 32.2552 45.3136H24.7815C23.9531 45.3136 23.2815 44.642 23.2815 43.8136V17.8148ZM26.2815 19.3148V42.3136H30.7552V19.3148H26.2815Z" fill="#7A7A7A"/>
<path fill-rule="evenodd" clip-rule="evenodd" d="M34.7561 9.84964C34.7561 9.02121 35.4277 8.34964 36.2561 8.34964H43.7298C44.5582 8.34964 45.2298 9.02121 45.2298 9.84964V43.8293C45.2298 44.6577 44.5582 45.3293 43.7298 45.3293H36.2561C35.4277 45.3293 34.7561 44.6577 34.7561 43.8293V9.84964ZM37.7561 11.3496V42.3293H42.2298V11.3496H37.7561Z" fill="#7A7A7A"/>
<path fill-rule="evenodd" clip-rule="evenodd" d="M46.2307 1.85406C46.2307 1.02564 46.9023 0.354065 47.7307 0.354065H55.2043C56.0327 0.354065 56.7043 1.02564 56.7043 1.85406V43.8146C56.7043 44.643 56.0327 45.3146 55.2043 45.3146H47.7307C46.9023 45.3146 46.2307 44.643 46.2307 43.8146V1.85406ZM49.2307 3.35406V42.3146H53.7043V3.35406H49.2307Z" fill="#7A7A7A"/>
</svg>
