<svg width="55" height="55" viewBox="0 0 55 55" fill="none" xmlns="http://www.w3.org/2000/svg">
<path fill-rule="evenodd" clip-rule="evenodd" d="M27.6615 49.9693C39.918 49.9693 49.8539 40.0334 49.8539 27.7768C49.8539 15.5203 39.918 5.58435 27.6615 5.58435C15.4049 5.58435 5.46899 15.5203 5.46899 27.7768C5.46899 40.0334 15.4049 49.9693 27.6615 49.9693ZM27.6615 54.9693C42.6794 54.9693 54.8539 42.7948 54.8539 27.7768C54.8539 12.7588 42.6794 0.584351 27.6615 0.584351C12.6435 0.584351 0.468994 12.7588 0.468994 27.7768C0.468994 42.7948 12.6435 54.9693 27.6615 54.9693Z" fill="#7A7A7A"/>
<path fill-rule="evenodd" clip-rule="evenodd" d="M43.4293 20.0662L22.5648 40.7375L11.9409 30.751L15.3655 27.1078L22.4736 33.7895L39.9102 16.5142L43.4293 20.0662Z" fill="#7A7A7A"/>
</svg>
