<svg width="75" height="78" viewBox="0 0 75 78" fill="none" xmlns="http://www.w3.org/2000/svg">
<path fill-rule="evenodd" clip-rule="evenodd" d="M42.7343 34.084C50.5012 34.084 56.7976 27.7877 56.7976 20.0207C56.7976 12.2538 50.5012 5.95747 42.7343 5.95747C34.9674 5.95747 28.671 12.2538 28.671 20.0207C28.671 27.7877 34.9674 34.084 42.7343 34.084ZM42.7343 39.084C53.2626 39.084 61.7976 30.5491 61.7976 20.0207C61.7976 9.49239 53.2626 0.957474 42.7343 0.957474C32.2059 0.957474 23.671 9.49239 23.671 20.0207C23.671 30.5491 32.2059 39.084 42.7343 39.084Z" fill="#7A7A7A"/>
<path fill-rule="evenodd" clip-rule="evenodd" d="M54.3142 15.1461L39.1748 30.1453L31.2014 22.6503L34.626 19.0072L39.0836 23.1973L50.7952 11.5942L54.3142 15.1461Z" fill="#7A7A7A"/>
<path d="M29.7951 71.0261C29.7951 74.4084 27.0532 77.1502 23.671 77.1502C20.2887 77.1502 17.5469 74.4084 17.5469 71.0261C17.5469 67.6439 20.2887 64.902 23.671 64.902C27.0532 64.902 29.7951 67.6439 29.7951 71.0261Z" fill="#7A7A7A"/>
<path d="M56.1971 71.0261C56.1971 74.4084 53.4552 77.1502 50.073 77.1502C46.6907 77.1502 43.9489 74.4084 43.9489 71.0261C43.9489 67.6439 46.6907 64.902 50.073 64.902C53.4552 64.902 56.1971 67.6439 56.1971 71.0261Z" fill="#7A7A7A"/>
<path d="M65.2881 47.9574L25.9651 47.9574L21.1519 55.621H62.0353V61.917H9.85372L11.866 58.5684L20.0977 45.4618L12.9268 18.6995H0.793457V12.4034H17.7248V12.4123L17.7578 12.4034L25.5975 41.6614H60.4571L68.0705 15.432H74.3569L65.2881 47.9574Z" fill="#7A7A7A"/>
</svg>
