<?xml version="1.0" encoding="UTF-8" standalone="no"?><!DOCTYPE svg PUBLIC "-//W3C//DTD SVG 1.1//EN" "http://www.w3.org/Graphics/SVG/1.1/DTD/svg11.dtd"><svg width="100%" height="100%" viewBox="0 0 71 70" version="1.1" xmlns="http://www.w3.org/2000/svg" xmlns:xlink="http://www.w3.org/1999/xlink" xml:space="preserve" xmlns:serif="http://www.serif.com/" style="fill-rule:evenodd;clip-rule:evenodd;stroke-linejoin:round;stroke-miterlimit:2;"><path d="M35.356,0.307c19.224,0 34.832,15.608 34.832,34.833c0,19.224 -15.608,34.832 -34.832,34.832c-19.225,0 -34.833,-15.608 -34.833,-34.832c0,-19.225 15.608,-34.833 34.833,-34.833Zm-23.282,53.951c-4.276,-5.201 -6.843,-11.86 -6.843,-19.118c0,-16.638 13.487,-30.125 30.125,-30.125c16.637,0 30.125,13.487 30.125,30.125c0,7.258 -2.568,13.917 -6.843,19.118c-0.012,0.015 -0.024,0.029 -0.036,0.044c-0.853,1.033 -1.773,2.009 -2.754,2.919c-5.376,4.992 -12.578,8.043 -20.492,8.043c-7.929,0 -15.142,-3.063 -20.521,-8.07c-0.984,-0.916 -1.907,-1.897 -2.761,-2.936Zm42.529,-0.722c-4.848,5.07 -11.679,8.228 -19.247,8.228c-7.569,0 -14.4,-3.158 -19.247,-8.228c3.28,-7.366 10.664,-12.501 19.247,-12.501c8.583,0 15.967,5.136 19.247,12.501Zm2.448,-2.96c-3.006,-5.651 -8.155,-9.988 -14.364,-11.928c3.839,-2.432 6.387,-6.717 6.387,-11.597c0,-7.576 -6.142,-13.718 -13.718,-13.718c-7.576,0 -13.718,6.142 -13.718,13.718c0,4.88 2.548,9.165 6.387,11.597c-6.209,1.94 -11.359,6.277 -14.365,11.928c-3.103,-4.354 -4.929,-9.682 -4.929,-15.436c0,-14.705 11.921,-26.625 26.625,-26.625c14.704,0 26.625,11.92 26.625,26.625c0,5.754 -1.826,11.082 -4.93,15.436Zm-21.695,-13.307c5.643,0 10.218,-4.574 10.218,-10.218c0,-5.643 -4.575,-10.218 -10.218,-10.218c-5.643,0 -10.218,4.575 -10.218,10.218c0,5.644 4.575,10.218 10.218,10.218Z" style="fill:#7a7a7a;"/></svg>