<svg width="71" height="71" viewBox="0 0 71 71" fill="none" xmlns="http://www.w3.org/2000/svg">
<path fill-rule="evenodd" clip-rule="evenodd" d="M58.372 57.2139C52.6534 63.3354 44.5091 67.1621 35.4711 67.1621C26.4331 67.1621 18.2888 63.3353 12.5702 57.2137C16.1012 48.9576 23.9664 42.9971 33.3053 42.1923C34.0134 42.289 34.7364 42.3389 35.4711 42.3389C36.2057 42.3389 36.9287 42.289 37.6368 42.1923C46.9758 42.9971 54.8409 48.9577 58.372 57.2139ZM60.8393 54.2231C57.409 47.4231 51.325 42.1906 43.9479 39.8863C48.3865 37.0745 51.3331 32.1199 51.3331 26.4769C51.3331 17.7166 44.2314 10.615 35.4711 10.615C26.7107 10.615 19.6091 17.7166 19.6091 26.4769C19.6091 32.1198 22.5557 37.0745 26.9942 39.8863C19.6172 42.1906 13.5332 47.423 10.1028 54.2229C6.35121 49.0576 4.13867 42.702 4.13867 35.8296C4.13867 18.5252 18.1667 4.49716 35.4711 4.49716C52.7756 4.49716 66.8036 18.5252 66.8036 35.8296C66.8036 42.7021 64.591 49.0577 60.8393 54.2231ZM62.3496 57.9863C67.3186 51.9652 70.3036 44.246 70.3036 35.8296C70.3036 16.5922 54.7086 0.997162 35.4711 0.997162C16.2337 0.997162 0.638672 16.5922 0.638672 35.8296C0.638672 44.2224 3.60692 51.9219 8.55092 57.9356C9.36164 58.9217 10.2255 59.8625 11.1381 60.7536C11.1983 60.8124 11.2587 60.8709 11.3193 60.9292C17.5813 66.9563 26.0935 70.6621 35.4711 70.6621C44.8487 70.6621 53.3608 66.9564 59.6229 60.9294C60.5868 60.0017 61.4974 59.019 62.3496 57.9863ZM35.471 38.5994C34.7853 38.5994 34.1053 38.6237 33.4318 38.6715C27.5748 37.6993 23.1091 32.6096 23.1091 26.4769C23.1091 19.6496 28.6437 14.115 35.4711 14.115C42.2984 14.115 47.8331 19.6496 47.8331 26.4769C47.8331 32.6097 43.3673 37.6993 37.5104 38.6715C36.8368 38.6237 36.1568 38.5994 35.471 38.5994Z" fill="#7A7A7A"/>
</svg>
