<svg width="58" height="37" viewBox="0 0 58 37" fill="none" xmlns="http://www.w3.org/2000/svg">
<path fill-rule="evenodd" clip-rule="evenodd" d="M2.25037 0.859955C1.42194 0.859955 0.750366 1.53153 0.750366 2.35995V8.30793C0.749877 8.32999 0.749879 8.35201 0.750366 8.37399V35.4804C0.750366 36.3089 1.42194 36.9804 2.25037 36.9804H55.9331C56.7616 36.9804 57.4331 36.3089 57.4331 35.4804V8.34427C57.4331 8.34206 57.4331 8.33985 57.4331 8.33765V2.35995C57.4331 1.53153 56.7616 0.859955 55.9331 0.859955H2.25037ZM54.4331 7.32052V3.85995H3.75037V7.32066L29.0916 17.3194L54.4331 7.32052ZM3.75037 10.5457V33.9804H54.4331V10.5456L29.6421 20.3273C29.2884 20.4668 28.8948 20.4668 28.541 20.3273L3.75037 10.5457Z" fill="#7A7A7A"/>
</svg>
