<svg width="41" height="51" viewBox="0 0 41 51" fill="none" xmlns="http://www.w3.org/2000/svg">
<path fill-rule="evenodd" clip-rule="evenodd" d="M4.95996 16.3077V19.7742H1.94336C1.11493 19.7742 0.443359 20.4458 0.443359 21.2742V49.1713C0.443359 49.9997 1.11493 50.6713 1.94336 50.6713H38.7211C39.5495 50.6713 40.2211 49.9997 40.2211 49.1713V21.2742C40.2211 20.4458 39.5495 19.7742 38.7211 19.7742H35.8071V16.3077C35.8071 7.79448 28.8966 0.88385 20.3837 0.88385C11.8706 0.88385 4.95996 7.79446 4.95996 16.3077ZM20.3837 3.88385C13.5274 3.88385 7.95996 9.45131 7.95996 16.3077V19.7742H32.8071V16.3077C32.8071 9.45128 27.2396 3.88385 20.3837 3.88385ZM3.44336 22.7742V47.6713H37.2211V22.7742H3.44336ZM26.9103 30.4607L22.5211 34.7565L26.9103 39.0522L24.7214 41.1946L20.3322 36.8988L15.943 41.1946L13.754 39.0522L18.1432 34.7565L13.754 30.4607L15.943 28.3183L20.3322 32.6141L24.7214 28.3183L26.9103 30.4607Z" fill="#7A7A7A"/>
</svg>
