<svg width="52" height="58" viewBox="0 0 52 58" fill="none" xmlns="http://www.w3.org/2000/svg">
<path fill-rule="evenodd" clip-rule="evenodd" d="M25.3419 0.717357C25.8647 0.342017 26.5686 0.342017 27.0915 0.717357L50.9251 17.8283C51.3175 18.1101 51.5503 18.5636 51.5503 19.0468V56.1685C51.5503 56.9969 50.8787 57.6685 50.0503 57.6685H32.5802C31.7517 57.6685 31.0802 56.9969 31.0802 56.1685V41.2998H21.3531V56.1685C21.3531 56.9969 20.6815 57.6685 19.8531 57.6685H2.38306C1.55463 57.6685 0.883057 56.9969 0.883057 56.1685V19.0468C0.883057 18.5636 1.11578 18.1101 1.50826 17.8283L25.3419 0.717357ZM3.88306 19.8164V54.6685H18.3531V39.7998C18.3531 38.9713 19.0247 38.2998 19.8531 38.2998H32.5802C33.4086 38.2998 34.0802 38.9713 34.0802 39.7998V54.6685H48.5503V19.8164L26.2167 3.78239L3.88306 19.8164Z" fill="#7A7A7A"/>
</svg>
