<svg width="13" height="45" viewBox="0 0 13 45" fill="none" xmlns="http://www.w3.org/2000/svg">
<path d="M12.1368 5.61218C12.1368 8.70918 9.62623 11.2198 6.52924 11.2198C3.43224 11.2198 0.921631 8.70918 0.921631 5.61218C0.921631 2.51519 3.43224 0.00457764 6.52924 0.00457764C9.62623 0.00457764 12.1368 2.51519 12.1368 5.61218Z" fill="#7A7A7A"/>
<path d="M12.1368 22.0117C12.1368 25.1087 9.62623 27.6194 6.52924 27.6194C3.43224 27.6194 0.921631 25.1087 0.921631 22.0117C0.921631 18.9148 3.43224 16.4041 6.52924 16.4041C9.62623 16.4041 12.1368 18.9148 12.1368 22.0117Z" fill="#7A7A7A"/>
<path d="M12.1368 38.4109C12.1368 41.5079 9.62623 44.0186 6.52924 44.0186C3.43224 44.0186 0.921631 41.5079 0.921631 38.4109C0.921631 35.314 3.43224 32.8033 6.52924 32.8033C9.62623 32.8033 12.1368 35.314 12.1368 38.4109Z" fill="#7A7A7A"/>
</svg>
