<svg width="64" height="45" viewBox="0 0 64 45" fill="none" xmlns="http://www.w3.org/2000/svg">
<path fill-rule="evenodd" clip-rule="evenodd" d="M5.75986 3.87286C4.50058 3.87286 3.47974 4.89371 3.47974 6.15299C3.47974 7.41228 4.50058 8.43312 5.75986 8.43312C7.01913 8.43312 8.03998 7.41228 8.03998 6.15299C8.03998 4.89371 7.01913 3.87286 5.75986 3.87286ZM0.479736 6.15299C0.479736 3.23686 2.84372 0.872864 5.75986 0.872864C8.67599 0.872864 11.04 3.23686 11.04 6.15299C11.04 9.06912 8.67599 11.4331 5.75986 11.4331C2.84372 11.4331 0.479736 9.06912 0.479736 6.15299Z" fill="#7A7A7A"/>
<path fill-rule="evenodd" clip-rule="evenodd" d="M14.1516 6.15704C14.1516 5.32862 14.8232 4.65704 15.6516 4.65704H61.8064C62.6349 4.65704 63.3064 5.32862 63.3064 6.15704C63.3064 6.98547 62.6349 7.65704 61.8064 7.65704H15.6516C14.8232 7.65704 14.1516 6.98547 14.1516 6.15704Z" fill="#7A7A7A"/>
<path fill-rule="evenodd" clip-rule="evenodd" d="M5.75986 20.5355C4.50058 20.5355 3.47974 21.5563 3.47974 22.8156C3.47974 24.0749 4.50058 25.0957 5.75986 25.0957C7.01913 25.0957 8.03998 24.0749 8.03998 22.8156C8.03998 21.5563 7.01913 20.5355 5.75986 20.5355ZM0.479736 22.8156C0.479736 19.8995 2.84372 17.5355 5.75986 17.5355C8.67599 17.5355 11.04 19.8995 11.04 22.8156C11.04 25.7317 8.67599 28.0957 5.75986 28.0957C2.84372 28.0957 0.479736 25.7317 0.479736 22.8156Z" fill="#7A7A7A"/>
<path fill-rule="evenodd" clip-rule="evenodd" d="M14.1516 22.8196C14.1516 21.9912 14.8232 21.3196 15.6516 21.3196H61.8064C62.6349 21.3196 63.3064 21.9912 63.3064 22.8196C63.3064 23.6481 62.6349 24.3196 61.8064 24.3196H15.6516C14.8232 24.3196 14.1516 23.6481 14.1516 22.8196Z" fill="#7A7A7A"/>
<path fill-rule="evenodd" clip-rule="evenodd" d="M5.75986 37.2286C4.50058 37.2286 3.47974 38.2494 3.47974 39.5087C3.47974 40.768 4.50059 41.7888 5.75986 41.7888C7.01913 41.7888 8.03998 40.768 8.03998 39.5087C8.03998 38.2494 7.01913 37.2286 5.75986 37.2286ZM0.479736 39.5087C0.479736 36.5926 2.84372 34.2286 5.75986 34.2286C8.67599 34.2286 11.04 36.5926 11.04 39.5087C11.04 42.4248 8.676 44.7888 5.75986 44.7888C2.84372 44.7888 0.479736 42.4248 0.479736 39.5087Z" fill="#7A7A7A"/>
<path fill-rule="evenodd" clip-rule="evenodd" d="M14.1516 39.5128C14.1516 38.6843 14.8232 38.0128 15.6516 38.0128H61.8064C62.6349 38.0128 63.3064 38.6843 63.3064 39.5128C63.3064 40.3412 62.6349 41.0128 61.8064 41.0128H15.6516C14.8232 41.0128 14.1516 40.3412 14.1516 39.5128Z" fill="#7A7A7A"/>
</svg>
