<svg width="104" height="105" viewBox="0 0 104 105" fill="none" xmlns="http://www.w3.org/2000/svg">
<path d="M95.685 24.7623C97.4853 25.6078 99.3137 26.4818 101.175 27.3855C104.058 28.7853 104.858 32.5099 102.814 34.9782C101.495 36.5702 100.198 38.1236 98.9198 39.6416C77.7792 64.7419 61.7038 80.154 37.0921 99.9612C35.6928 101.087 34.266 102.228 32.8091 103.385C29.9812 105.631 25.7881 104.2 24.898 100.7L24.4555 98.9603C23.9905 97.132 24.5941 95.1978 26.0163 93.9584L33.8274 87.1512C33.8292 87.1497 33.8316 87.1492 33.8338 87.1499C33.836 87.1506 33.8384 87.1501 33.8402 87.1486C53.0905 71.4061 66.9898 58.1682 83.4207 39.2979C85.5956 36.8001 84.7395 32.9172 81.7042 31.5917C61.9554 22.9674 45.0255 18.0366 22.433 14.6764C18.943 14.1573 16.0886 17.3765 16.9583 20.7961L21.1104 37.1221C21.7911 39.7983 20.1733 42.5196 17.4971 43.2002L15.5588 43.6932C12.8826 44.3738 10.1613 42.7561 9.48066 40.0799L1.00003 6.73438C0.147883 3.38378 2.87222 0.199805 6.3103 0.563609C8.23698 0.767483 10.1235 0.977378 11.973 1.19409C45.7669 5.15382 67.2097 11.3898 95.685 24.7623Z" fill="#7A7A7A"/>
<path d="M52.4566 40.7348C53.3043 44.068 51.2894 47.4573 47.9562 48.305C44.6231 49.1527 41.2337 47.1378 40.386 43.8046C39.5383 40.4715 41.5532 37.0821 44.8864 36.2344C48.2196 35.3867 51.6089 37.4016 52.4566 40.7348Z" fill="#7A7A7A"/>
</svg>
