<svg width="91" height="92" viewBox="0 0 91 92" fill="none" xmlns="http://www.w3.org/2000/svg">
<path fill-rule="evenodd" clip-rule="evenodd" d="M48.5985 52.6913C39.2827 60.2405 25.5787 59.682 16.9123 51.0155C7.64877 41.752 7.64877 26.7329 16.9123 17.4695C26.1758 8.20596 41.1948 8.20596 50.4583 17.4695C59.1248 26.1359 59.6834 39.8399 52.1341 49.1557L57.5378 54.5594C58.2215 54.217 59.0754 54.331 59.6458 54.9013L74.1414 69.397C75.6054 70.861 75.6054 73.2346 74.1414 74.6986C72.6774 76.1626 70.3038 76.1626 68.8398 74.6986L54.3441 60.2029C53.7738 59.6326 53.6598 58.7787 54.0023 58.095L48.5985 52.6913ZM46.9228 47.48C39.6119 54.7909 27.7587 54.7909 20.4478 47.48C13.1369 40.1691 13.1369 28.3159 20.4478 21.005C27.7587 13.6941 39.6119 13.6941 46.9228 21.005C54.2337 28.3159 54.2337 40.1691 46.9228 47.48Z" fill="#7A7A7A"/>
</svg>
