<svg width="41" height="51" viewBox="0 0 41 51" fill="none" xmlns="http://www.w3.org/2000/svg">
<path fill-rule="evenodd" clip-rule="evenodd" d="M5.46021 19.7742V16.3077C5.46021 7.79446 12.3708 0.88385 20.884 0.88385C29.3968 0.88385 36.3074 7.79448 36.3074 16.3077V19.7742H39.2213C40.0497 19.7742 40.7213 20.4458 40.7213 21.2742V49.1713C40.7213 49.9997 40.0497 50.6713 39.2213 50.6713H2.4436C1.61518 50.6713 0.943604 49.9997 0.943604 49.1713V21.2742C0.943604 20.4458 1.61518 19.7742 2.4436 19.7742H5.46021ZM8.46021 16.3077C8.46021 9.45131 14.0277 3.88385 20.884 3.88385C27.7399 3.88385 33.3074 9.45128 33.3074 16.3077V19.7742H8.46021V16.3077ZM3.9436 47.6713V22.7742H37.7213V47.6713H3.9436Z" fill="#7A7A7A"/>
<path fill-rule="evenodd" clip-rule="evenodd" d="M21.941 34.6546C23.295 34.1935 24.269 32.9109 24.269 31.4008C24.269 29.5028 22.7304 27.9642 20.8324 27.9642C18.9345 27.9642 17.3959 29.5028 17.3959 31.4008C17.3959 32.9109 18.3699 34.1935 19.7239 34.6546V40.1654H21.941V34.6546Z" fill="#7A7A7A"/>
</svg>
