<svg width="62" height="62" viewBox="0 0 62 62" fill="none" xmlns="http://www.w3.org/2000/svg">
<path fill-rule="evenodd" clip-rule="evenodd" d="M26.8175 0.869347C29.7643 0.432304 32.7601 0.432304 35.7069 0.869347L35.4869 2.35312L36.9806 2.21677L37.5435 8.38378C39.3401 8.88645 41.0701 9.60294 42.696 10.5179L47.4543 6.55523C47.9861 6.11236 48.7518 6.09079 49.3077 6.50301C51.7008 8.27767 53.8193 10.3962 55.5939 12.7892C56.0062 13.3451 55.9846 14.1108 55.5417 14.6426L51.579 19.4009C52.494 21.0268 53.2105 22.7568 53.7132 24.5534L59.8802 25.1163C60.5694 25.1792 61.1261 25.7055 61.2276 26.39C61.6647 29.3368 61.6647 32.3327 61.2276 35.2795C61.1261 35.964 60.5694 36.4903 59.8802 36.5532L53.7132 37.1161C53.2105 38.9127 52.494 40.6427 51.579 42.2686L55.5417 47.0269C55.9846 47.5587 56.0062 48.3244 55.5939 48.8803C53.8193 51.2734 51.7008 53.3918 49.3077 55.1665C48.7518 55.5787 47.9861 55.5571 47.4543 55.1143L42.696 51.1516C41.0701 52.0666 39.3401 52.7831 37.5435 53.2857L36.9806 59.4527C36.9177 60.1419 36.3915 60.6986 35.7069 60.8002C32.7601 61.2372 29.7643 61.2372 26.8175 60.8002C26.1329 60.6986 25.6066 60.1419 25.5437 59.4527L24.9808 53.2857C23.1843 52.7831 21.4543 52.0666 19.8284 51.1516L15.0701 55.1143C14.5383 55.5571 13.7725 55.5787 13.2167 55.1665C10.8236 53.3918 8.7051 51.2734 6.93044 48.8803C6.51822 48.3244 6.53979 47.5587 6.98266 47.0269L10.9454 42.2686C10.0304 40.6427 9.31388 38.9127 8.81121 37.1161L2.6442 36.5532C1.955 36.4903 1.39831 35.964 1.29678 35.2795C0.859733 32.3327 0.859733 29.3368 1.29678 26.39C1.39831 25.7055 1.955 25.1792 2.6442 25.1163L8.81121 24.5534C9.31388 22.7568 10.0304 21.0268 10.9454 19.4009L6.98266 14.6426C6.53979 14.1108 6.51822 13.3451 6.93044 12.7892C8.7051 10.3962 10.8236 8.27767 13.2167 6.50301C13.7725 6.09079 14.5383 6.11236 15.0701 6.55523L19.8284 10.5179C21.4543 9.60294 23.1843 8.88645 24.9808 8.38378L25.5437 2.21677C25.6066 1.52758 26.1329 0.970877 26.8175 0.869347ZM34.1026 3.68973C32.2142 3.49218 30.3101 3.49218 28.4218 3.68973L27.8721 9.71173C27.8132 10.3574 27.3461 10.8921 26.7142 11.0373C24.5064 11.5445 22.3987 12.4175 20.4791 13.6199C19.9296 13.9641 19.2211 13.9163 18.7229 13.5014L14.0764 9.63178C12.6012 10.8274 11.2548 12.1738 10.0592 13.6489L13.9288 18.2954C14.3437 18.7937 14.3916 19.5021 14.0474 20.0516C12.8449 21.9713 11.972 24.079 11.4647 26.2868C11.3195 26.9186 10.7848 27.3857 10.1392 27.4447L4.11716 27.9943C3.91961 29.8827 3.91961 31.7868 4.11716 33.6752L10.1392 34.2248C10.7848 34.2838 11.3195 34.7509 11.4647 35.3827C11.972 37.5905 12.8449 39.6983 14.0474 41.6179C14.3916 42.1674 14.3437 42.8758 13.9288 43.3741L10.0592 48.0206C11.2548 49.4957 12.6012 50.8421 14.0764 52.0377L18.7229 48.1681C19.2211 47.7532 19.9296 47.7054 20.4791 48.0496C22.3987 49.252 24.5064 50.125 26.7142 50.6322C27.3461 50.7774 27.8132 51.3121 27.8721 51.9578L28.4218 57.9798C30.3101 58.1773 32.2142 58.1773 34.1026 57.9798L34.6523 51.9578C34.7112 51.3121 35.1783 50.7774 35.8102 50.6322C38.018 50.125 40.1257 49.252 42.0453 48.0496C42.5948 47.7054 43.3033 47.7532 43.8015 48.1681L48.448 52.0377C49.9231 50.8421 51.2696 49.4957 52.4652 48.0206L48.5956 43.3741C48.1807 42.8758 48.1328 42.1674 48.477 41.6179C49.6795 39.6983 50.5524 37.5905 51.0597 35.3827C51.2048 34.7509 51.7396 34.2838 52.3852 34.2248L58.4072 33.6752C58.6048 31.7868 58.6048 29.8827 58.4072 27.9943L52.3852 27.4447C51.7396 27.3857 51.2048 26.9186 51.0597 26.2868C50.5524 24.079 49.6795 21.9712 48.477 20.0516C48.1328 19.5021 48.1807 18.7937 48.5956 18.2954L52.4652 13.6489C51.2696 12.1738 49.9231 10.8274 48.448 9.63178L43.8015 13.5014C43.3033 13.9163 42.5948 13.9641 42.0453 13.6199C40.1257 12.4175 38.018 11.5445 35.8102 11.0373C35.1783 10.8921 34.7112 10.3574 34.6523 9.71173L34.1026 3.68973ZM31.2622 19.9166C25.2371 19.9166 20.344 24.8096 20.344 30.8348C20.344 36.8599 25.2371 41.7529 31.2622 41.7529C37.2873 41.7529 42.1804 36.8599 42.1804 30.8348C42.1804 24.8096 37.2873 19.9166 31.2622 19.9166ZM17.344 30.8348C17.344 23.1528 23.5802 16.9166 31.2622 16.9166C38.9442 16.9166 45.1804 23.1528 45.1804 30.8348C45.1804 38.5167 38.9442 44.7529 31.2622 44.7529C23.5802 44.7529 17.344 38.5167 17.344 30.8348Z" fill="#7A7A7A"/>
</svg>
