<svg width="41" height="56" viewBox="0 0 41 56" fill="none" xmlns="http://www.w3.org/2000/svg">
<path fill-rule="evenodd" clip-rule="evenodd" d="M7.76698 3.0152C6.68488 3.0152 5.64698 3.44527 4.88191 4.21034C4.11657 4.97567 3.68677 6.01352 3.68677 7.09581V48.8676C3.68677 49.9499 4.1166 50.9876 4.8817 51.7524C5.64651 52.5175 6.68462 52.9478 7.76698 52.9478H20.526L20.5264 54.4478L20.5263 55.9478H7.76698C5.88942 55.9478 4.08852 55.2022 2.76079 53.8741C1.43277 52.5464 0.686768 50.7451 0.686768 48.8676V7.09581C0.686768 5.21801 1.43254 3.41706 2.76058 2.08902C4.08809 0.761514 5.88898 0.0151978 7.76698 0.0151978H20.526L20.5264 1.5152L20.5263 3.0152H7.76698ZM22.0264 1.5152C22.0264 2.34362 21.3547 3.0152 20.5263 3.0152L20.5264 1.5152L20.526 0.0151978C21.3544 0.0151978 22.0264 0.686771 22.0264 1.5152ZM22.0264 54.4478C22.0264 55.2762 21.3547 55.9478 20.5263 55.9478L20.5264 54.4478L20.526 52.9478C21.3544 52.9478 22.0264 53.6193 22.0264 54.4478Z" fill="#7A7A7A"/>
<path fill-rule="evenodd" clip-rule="evenodd" d="M40.7038 27.5636C40.7113 28.392 40.0458 29.0696 39.2174 29.0771L17.215 29.2767C16.3866 29.2842 15.709 28.6187 15.7015 27.7903C15.694 26.9619 16.3594 26.2843 17.1878 26.2768L39.1902 26.0773C40.0186 26.0698 40.6962 26.7352 40.7038 27.5636Z" fill="#7A7A7A"/>
<path fill-rule="evenodd" clip-rule="evenodd" d="M24.2833 18.5847C24.8676 19.1719 24.8652 20.1217 24.2779 20.706L16.3063 28.6374C15.719 29.2217 14.7692 29.2193 14.1849 28.632C13.6006 28.0447 13.6031 27.095 14.1903 26.5107L22.162 18.5793C22.7493 17.995 23.699 17.9974 24.2833 18.5847Z" fill="#7A7A7A"/>
<path fill-rule="evenodd" clip-rule="evenodd" d="M14.1849 26.5192C14.7692 25.932 15.719 25.9296 16.3063 26.5139L24.2779 34.4453C24.8652 35.0296 24.8676 35.9793 24.2833 36.5666C23.699 37.1538 22.7493 37.1562 22.162 36.5719L14.1903 28.6406C13.6031 28.0563 13.6006 27.1065 14.1849 26.5192Z" fill="#7A7A7A"/>
</svg>
