<svg width="40" height="56" viewBox="0 0 40 56" fill="none" xmlns="http://www.w3.org/2000/svg">
<path fill-rule="evenodd" clip-rule="evenodd" d="M8.03553 3.0152C6.95343 3.0152 5.91553 3.44527 5.15046 4.21034C4.38513 4.97567 3.95532 6.01352 3.95532 7.09581V48.8676C3.95532 49.9499 4.38515 50.9876 5.15026 51.7524C5.91507 52.5175 6.95318 52.9478 8.03553 52.9478H20.7946L20.7949 54.4478L20.7948 55.9478H8.03553C6.15798 55.9478 4.35707 55.2022 3.02934 53.8741C1.70132 52.5464 0.955322 50.7451 0.955322 48.8676V7.09581C0.955322 5.21801 1.7011 3.41706 3.02914 2.08902C4.35664 0.761514 6.15753 0.0151978 8.03553 0.0151978H20.7946L20.7949 1.5152L20.7948 3.0152H8.03553ZM22.2949 1.5152C22.2949 2.34362 21.6232 3.0152 20.7948 3.0152L20.7949 1.5152L20.7946 0.0151978C21.623 0.0151978 22.2949 0.686771 22.2949 1.5152ZM22.2949 54.4478C22.2949 55.2762 21.6232 55.9478 20.7948 55.9478L20.7949 54.4478L20.7946 52.9478C21.623 52.9478 22.2949 53.6193 22.2949 54.4478Z" fill="#7A7A7A"/>
<path fill-rule="evenodd" clip-rule="evenodd" d="M12.6741 27.7772C12.6817 26.9488 13.3593 26.2833 14.1877 26.2909L36.1897 26.4908C37.0181 26.4983 37.6835 27.176 37.676 28.0044C37.6685 28.8327 36.9908 29.4982 36.1624 29.4907L14.1604 29.2907C13.3321 29.2832 12.6666 28.6056 12.6741 27.7772Z" fill="#7A7A7A"/>
<path fill-rule="evenodd" clip-rule="evenodd" d="M29.1019 18.7983C29.6862 18.211 30.636 18.2086 31.2233 18.7929L39.1949 26.7243C39.7822 27.3086 39.7846 28.2584 39.2003 28.8456C38.616 29.4329 37.6662 29.4353 37.079 28.851L29.1073 20.9196C28.52 20.3353 28.5176 19.3856 29.1019 18.7983Z" fill="#7A7A7A"/>
<path fill-rule="evenodd" clip-rule="evenodd" d="M39.2003 26.7328C39.7846 27.3201 39.7822 28.2698 39.1949 28.8541L31.2233 36.7859C30.636 37.3702 29.6863 37.3678 29.102 36.7806C28.5177 36.1933 28.52 35.2436 29.1073 34.6592L37.079 26.7275C37.6662 26.1432 38.616 26.1456 39.2003 26.7328Z" fill="#7A7A7A"/>
</svg>
