<?xml version="1.0" encoding="UTF-8" standalone="no"?><!DOCTYPE svg PUBLIC "-//W3C//DTD SVG 1.1//EN" "http://www.w3.org/Graphics/SVG/1.1/DTD/svg11.dtd"><svg width="100%" height="100%" viewBox="0 0 61 62" version="1.1" xmlns="http://www.w3.org/2000/svg" xmlns:xlink="http://www.w3.org/1999/xlink" xml:space="preserve" xmlns:serif="http://www.serif.com/" style="fill-rule:evenodd;clip-rule:evenodd;stroke-linejoin:round;stroke-miterlimit:2;"><path d="M4.167,4.08c-0.173,0.173 -0.256,0.414 -0.228,0.655l2.582,21.902c0,0 0,0 0,0c0.056,0.48 0.273,0.927 0.615,1.268c2.568,2.569 10.229,10.23 17.248,17.248l12.333,12.334l20.857,-20.857l-12.334,-12.334c-7.018,-7.018 -14.678,-14.678 -17.247,-17.247c-0.342,-0.342 -0.789,-0.559 -1.268,-0.615c-2.877,-0.339 -10.145,-1.196 -16.073,-1.895c-2.236,-0.263 -4.282,-0.504 -5.829,-0.687m54.873,32.778c1.06,-1.06 1.06,-1.061 1.06,-1.061l-13.395,-13.394c-7.018,-7.018 -14.679,-14.679 -17.247,-17.248c-0.818,-0.817 -1.889,-1.337 -3.039,-1.472m32.621,33.175l1.06,1.061l-22.978,22.978c-0.586,0.586 -1.535,0.586 -2.121,0l1.06,-1.061c-1.06,1.061 -1.06,1.061 -1.06,1.061l-0.001,-0.001l-13.394,-13.393c-7.018,-7.019 -14.679,-14.679 -17.248,-17.249c-0.818,-0.818 -1.337,-1.888 -1.473,-3.038l-2.581,-21.9c-0.136,-1.155 0.264,-2.308 1.085,-3.129l0.001,-0.001c0.822,-0.821 1.974,-1.221 3.128,-1.085c1.548,0.182 3.597,0.424 5.837,0.688c5.925,0.698 13.189,1.554 16.064,1.894m-22.908,0.625c0.172,-0.173 0.414,-0.256 0.656,-0.228l-0.656,0.228Z" style="fill:#7a7a7a;"/><path d="M15.23,9.615c2.996,0 5.428,2.432 5.428,5.427c0,2.996 -2.432,5.428 -5.428,5.428c-2.995,0 -5.427,-2.432 -5.427,-5.428c0,-2.995 2.432,-5.427 5.427,-5.427Zm0,2.714c1.498,0 2.714,1.216 2.714,2.713c0,1.498 -1.216,2.714 -2.714,2.714c-1.497,0 -2.713,-1.216 -2.713,-2.714c0,-1.497 1.216,-2.713 2.713,-2.713Z" style="fill:#7a7a7a;"/></svg>