<svg width="45" height="45" viewBox="0 0 45 45" fill="none" xmlns="http://www.w3.org/2000/svg">
<path fill-rule="evenodd" clip-rule="evenodd" d="M33.2982 14.6982C33.2982 20.6518 28.4719 25.4781 22.5183 25.4781C16.5647 25.4781 11.7384 20.6518 11.7384 14.6982C11.7384 8.7446 16.5647 3.91827 22.5183 3.91827C28.4719 3.91827 33.2982 8.7446 33.2982 14.6982ZM28.0717 27.3133C32.9164 25.1775 36.2982 20.3328 36.2982 14.6982C36.2982 7.08775 30.1287 0.918274 22.5183 0.918274C14.9079 0.918274 8.7384 7.08775 8.7384 14.6982C8.7384 20.3328 12.1203 25.1776 16.965 27.3133C8.63718 29.436 2.17295 36.2215 0.516602 44.7257H3.58272C5.54307 36.077 13.2767 29.6201 22.5184 29.6201C31.7601 29.6201 39.4937 36.077 41.4541 44.7257H44.5202C42.8638 36.2215 36.3996 29.4359 28.0717 27.3133Z" fill="#7A7A7A"/>
</svg>
