<svg width="41" height="51" viewBox="0 0 41 51" fill="none" xmlns="http://www.w3.org/2000/svg">
<path fill-rule="evenodd" clip-rule="evenodd" d="M5.3562 19.1215V15.6549C5.3562 7.14172 12.2668 0.23111 20.78 0.23111C29.2928 0.23111 36.2034 7.14174 36.2034 15.6549V19.1215H39.1686C39.997 19.1215 40.6686 19.7931 40.6686 20.6215V48.5186C40.6686 49.347 39.997 50.0186 39.1686 50.0186H2.39087C1.56244 50.0186 0.890869 49.347 0.890869 48.5186V20.6215C0.890869 19.7931 1.56244 19.1215 2.39087 19.1215H5.3562ZM8.3562 15.6549C8.3562 8.79857 13.9237 3.23111 20.78 3.23111C27.6359 3.23111 33.2034 8.79854 33.2034 15.6549V19.1215H8.3562V15.6549ZM3.89087 47.0186V22.1215H37.6686V47.0186H3.89087Z" fill="#7A7A7A"/>
<path d="M15.6678 37.5766L15.6602 37.5831L17.8097 40.0979L30.534 29.2214L28.3844 26.7067L18.1825 35.4271L14.6271 31.2677L12.1124 33.4172L15.6678 37.5766Z" fill="#7A7A7A"/>
</svg>
